# xmcd
#
# Track frame offsets: 
#        151
#        27439
#        52612
#        73752
#        93845
#        118139
#        134100
#        155045
#        176124
#        198407
#        222723
#        252067
#        279044
#        292877
#        307327
#        332013
#
# Disc length: 4430 seconds
#
# Revision: 0
# Processed by: cddbd v1.5.1PL0 Copyright (c) Steve Scherf et al.
# Submitted via: ExactAudioCopy v0.95a5
#
DISCID=f7114c10
DTITLE=juttla - angels aliens and assassins
DYEAR=1999
DGENRE=Drum and Bass
TTITLE0=ready to burn
TTITLE1=shadow 303
TTITLE2=sitaro
TTITLE3=faces of jazz
TTITLE4=bombay hq
TTITLE5=fly trap
TTITLE6=new dimensions
TTITLE7=dekha
TTITLE8=garbar signh
TTITLE9=saragama
TTITLE10=tribal tablas
TTITLE11=indian blues
TTITLE12=crazy after dark
TTITLE13=rising above
TTITLE14=aaa
TTITLE15=unknown bonus
EXTD=
EXTT0=
EXTT1=
EXTT2=
EXTT3=
EXTT4=
EXTT5=
EXTT6=
EXTT7=
EXTT8=
EXTT9=
EXTT10=
EXTT11=
EXTT12=
EXTT13=
EXTT14=
EXTT15=
PLAYORDER=
